<?xml version="1.0" encoding="UTF-8"?><svg id="Layer_2" xmlns="http://www.w3.org/2000/svg" viewBox="0 0 91.63 86.53"><defs><style>.cls-1{fill:#1a5f30;}</style></defs><g id="Layer_1-2"><path class="cls-1" d="M59.79,4.86l6.23,6.19s8.18-4.7,8.11-4.93c-.08-.23-7.78-4.1-7.78-4.1l-6.56,2.84Z"/><path class="cls-1" d="M31.33,4.86l-6.23,6.19s-8.18-4.7-8.11-4.93c.08-.23,7.78-4.1,7.78-4.1l6.56,2.84Z"/><path class="cls-1" d="M46.45,0c7.98,3.88,14.68,9.52,19.44,17.04v65.78s-8.56,3.71-19.45,3.71-20.45-3.71-20.45-3.71V17.04C30.78,9.52,37.54,3.67,45.68,0h.77Z"/><path class="cls-1" d="M68.13,16.43c5.69-6.72,14.63-10.63,23.49-10.07v45.29c-.89,13.02-11.4,24.81-23.49,30.72V16.43Z"/><path class="cls-1" d="M23.5,82.37C11.77,76.04.89,64.67,0,51.65V6.36c8.88-.58,17.81,3.33,23.5,10.07v65.93Z"/></g></svg>