<?xml version="1.0" encoding="UTF-8"?><svg id="Layer_2" xmlns="http://www.w3.org/2000/svg" viewBox="0 0 81.79 81.79"><defs><style>.cls-1{fill:#fff;}.cls-2{fill:#ed1c24;}</style></defs><g id="Layer_1-2"><polygon class="cls-2" points="4.54 0 77.24 0 53.01 7.57 53.01 74.21 77.24 81.79 4.54 81.79 28.78 74.21 28.78 7.57 4.54 0"/><polygon class="cls-2" points="81.79 4.54 81.79 77.24 74.21 53.01 7.57 53.01 0 77.24 0 4.54 7.57 28.78 74.21 28.78 81.79 4.54"/><polygon class="cls-1" points="34.81 7.57 46.95 7.57 46.95 34.83 74.22 34.83 74.22 46.95 46.95 46.95 46.95 74.21 34.81 74.21 34.81 46.95 7.57 46.95 7.57 34.83 34.81 34.83 34.81 7.57"/></g></svg>